<?xml version="1.0" encoding="iso-8859-1"?>
<!-- Generator: Adobe Illustrator 17.1.0, SVG Export Plug-In . SVG Version: 6.00 Build 0)  -->
<!DOCTYPE svg PUBLIC "-//W3C//DTD SVG 1.1//EN" "http://www.w3.org/Graphics/SVG/1.1/DTD/svg11.dtd">
<svg version="1.1" id="Capa_1" xmlns="http://www.w3.org/2000/svg" xmlns:xlink="http://www.w3.org/1999/xlink" x="0px" y="0px"
	 viewBox="0 0 331 331" style="enable-background:new 0 0 331 331;" xml:space="preserve">
<path d="M241.642,331H89.359c-2.463,0-4.56-1.794-4.94-4.228c-0.38-2.434,1.069-4.782,3.415-5.534l72.666-23.28V142.164
	c0-0.181,0.01-0.359,0.028-0.536h-8.308c-29.122,0-52.814-23.692-52.814-52.814v-2.763C71.288,74.357,52.634,46.707,52.634,16.162V5
	c0-2.761,2.238-5,5-5h215.732c2.762,0,5,2.239,5,5v11.162c0,30.545-18.654,58.196-46.771,69.889v2.763
	c0,29.122-23.692,52.814-52.814,52.814h-8.309c0.019,0.176,0.028,0.354,0.028,0.536v155.794l72.667,23.28
	c2.346,0.751,3.795,3.1,3.415,5.534C246.201,329.206,244.104,331,241.642,331z M121.354,321h88.292l-44.146-14.143L121.354,321z
	 M73.73,52.542c7.65,11.436,18.862,20.494,32.378,25.389c1.979,0.717,3.298,2.596,3.298,4.701v6.183
	c0,23.608,19.206,42.814,42.814,42.814h26.56c23.608,0,42.814-19.207,42.814-42.814v-6.183c0-2.105,1.318-3.984,3.298-4.701
	c13.516-4.895,24.728-13.953,32.378-25.389H152.189c-0.771,1.421-1.751,2.738-2.925,3.911l-15.446,15.446
	c-3.201,3.201-7.471,4.964-12.021,4.964s-8.819-1.763-12.021-4.965L94.332,56.453c-1.187-1.187-2.161-2.506-2.923-3.911H73.73z
	 M104.563,52.542l12.286,12.286l0.001,0c1.312,1.312,3.069,2.035,4.948,2.035s3.637-0.723,4.95-2.036l12.286-12.286H104.563z
	 M154.127,42.542h108.648c3.613-8.164,5.591-17.12,5.591-26.38V10H62.634v6.162c0,9.262,1.977,18.214,5.591,26.38h21.24
	c0.411-3.703,2.033-7.297,4.867-10.131l15.446-15.446c3.2-3.201,7.47-4.964,12.02-4.964s8.819,1.763,12.021,4.964l15.446,15.446
	C152.019,35.165,153.709,38.708,154.127,42.542z M99.613,42.542h44.37c-0.313-1.122-0.909-2.179-1.789-3.06l-15.446-15.446
	c-1.313-1.313-3.071-2.036-4.95-2.036s-3.637,0.723-4.948,2.035l-15.447,15.447C100.522,40.362,99.926,41.42,99.613,42.542z
	 M194.184,117.003c-1.588,0-3.2-0.224-4.799-0.695l-20.953-6.177l0,0c-8.991-2.651-14.149-12.122-11.499-21.113l6.177-20.953
	c2.65-8.991,12.12-14.151,21.113-11.5l20.953,6.176c8.991,2.651,14.149,12.122,11.499,21.113l-6.177,20.953
	C208.319,112.201,201.527,117.003,194.184,117.003z M171.26,100.54l20.953,6.177c1.781,0.526,3.672,0.319,5.32-0.58
	c1.65-0.898,2.848-2.375,3.373-4.155l6.177-20.953c1.091-3.702-1.033-7.602-4.735-8.693l-20.953-6.176
	c-3.702-1.091-7.603,1.033-8.693,4.735l-6.177,20.953C165.433,95.548,167.558,99.448,171.26,100.54L171.26,100.54z"/>
<g>
</g>
<g>
</g>
<g>
</g>
<g>
</g>
<g>
</g>
<g>
</g>
<g>
</g>
<g>
</g>
<g>
</g>
<g>
</g>
<g>
</g>
<g>
</g>
<g>
</g>
<g>
</g>
<g>
</g>
</svg>
